<?xml version="1.0" encoding="UTF-8" standalone="no"?>
<!-- Created with Friction - https://friction.graphics -->

<svg xmlns="http://www.w3.org/2000/svg" xmlns:xlink="http://www.w3.org/1999/xlink" viewBox="0 0 1080 1920">
 <g transform="translate(101.516 120.009)">
  <g transform="translate(438.484 839.991)">
   <g transform="rotate(0)">
    <g transform="scale(9.69998 9.69998)">
     <g transform="skewX(0) skewY(0)">
      <g transform="translate(-101.516 -120.009)" opacity="1">
       <g id="Calque1">
        <g transform="translate(96.5553 159.408)">
         <g transform="translate(0 0)">
          <g transform="rotate(0)">
           <g transform="scale(1 1)">
            <g transform="skewX(0) skewY(0)">
             <g transform="translate(-96.5553 -159.408)" opacity="1">
              <path d="M121.644 181.136C121.644 181.136 109.1 159.408 109.1 159.408C109.1 159.408 96.5553 137.68 96.5553 137.68C96.5553 137.68 84.0109 159.408 84.0109 159.408C84.0109 159.408 71.4664 181.136 71.4664 181.136" fill="none" id="path1" fill-rule="evenodd" stroke-width="4.70958" stroke-linejoin="round" stroke="rgba(255, 255, 255, 1)" stroke-linecap="round"/>
             </g>
            </g>
           </g>
          </g>
         </g>
        </g>
        <g transform="translate(101.516 101.321)">
         <g transform="translate(0 0)">
          <g transform="rotate(0)">
           <g transform="scale(1 1)">
            <g transform="skewX(0) skewY(0)">
             <g transform="translate(-101.516 -101.321)" opacity="1">
              <path d="M0 0" fill="none" id="path18" fill-rule="evenodd" stroke-width="4.70958" stroke-linejoin="round" stroke="rgba(255, 255, 255, 1)" stroke-linecap="round">
               <animate attributeName="d" fill="freeze" dur="5s" keyTimes="0;0;0.0118073;0.15;0.15;0.216667;0.316667;0.4;0.483333;0.566667;0.65;1" values="M109.691 151.586C109.691 151.586 123.348 133.406 123.348 133.406C123.348 133.406 96.5553 104.813 96.5553 104.813C96.5553 104.813 85.7858 132.988 85.7858 132.988C85.7858 132.988 67.3989 154.538 67.3989 154.538;M109.691 151.586C109.691 151.586 123.348 133.406 123.348 133.406C123.348 133.406 96.5553 104.813 96.5553 104.813C96.5553 104.813 85.7858 132.988 85.7858 132.988C85.7858 132.988 67.3989 154.538 67.3989 154.538;M109.572 152.401C109.572 152.401 123.278 133.537 123.278 133.537C123.278 133.537 96.5553 104.813 96.5553 104.813C96.5553 104.813 85.7858 132.988 85.7858 132.988C85.7858 132.988 67.3989 154.538 67.3989 154.538;M121.945 67.4636C121.945 67.4636 130.635 119.827 130.635 119.827C130.635 119.827 96.5553 104.813 96.5553 104.813C96.5553 104.813 85.7858 132.988 85.7858 132.988C85.7858 132.988 67.3989 154.538 67.3989 154.538;M121.945 67.4636C121.945 67.4636 130.635 119.827 130.635 119.827C130.635 119.827 96.5553 104.813 96.5553 104.813C96.5553 104.813 85.7858 132.988 85.7858 132.988C85.7858 132.988 67.3989 154.538 67.3989 154.538;M122.276 68.126C122.276 68.126 130.966 120.489 130.966 120.489C130.966 120.489 96.5553 104.813 96.5553 104.813C96.5553 104.813 85.7858 132.988 85.7858 132.988C85.7858 132.988 67.3989 154.538 67.3989 154.538;M120.62 59.515C120.62 59.515 129.31 111.878 129.31 111.878C129.31 111.878 96.5553 104.813 96.5553 104.813C96.5553 104.813 85.7858 132.988 85.7858 132.988C85.7858 132.988 67.3989 154.538 67.3989 154.538;M121.945 67.4636C121.945 67.4636 130.635 119.827 130.635 119.827C130.635 119.827 96.5553 104.813 96.5553 104.813C96.5553 104.813 85.7858 132.988 85.7858 132.988C85.7858 132.988 67.3989 154.538 67.3989 154.538;M122.276 68.126C122.276 68.126 130.966 120.489 130.966 120.489C130.966 120.489 96.5553 104.813 96.5553 104.813C96.5553 104.813 85.7858 132.988 85.7858 132.988C85.7858 132.988 67.3989 154.538 67.3989 154.538;M120.62 59.515C120.62 59.515 129.31 111.878 129.31 111.878C129.31 111.878 96.5553 104.813 96.5553 104.813C96.5553 104.813 85.7858 132.988 85.7858 132.988C85.7858 132.988 67.3989 154.538 67.3989 154.538;M121.945 67.4636C121.945 67.4636 130.635 119.827 130.635 119.827C130.635 119.827 96.5553 104.813 96.5553 104.813C96.5553 104.813 85.7858 132.988 85.7858 132.988C85.7858 132.988 67.3989 154.538 67.3989 154.538;M121.945 67.4636C121.945 67.4636 130.635 119.827 130.635 119.827C130.635 119.827 96.5553 104.813 96.5553 104.813C96.5553 104.813 85.7858 132.988 85.7858 132.988C85.7858 132.988 67.3989 154.538 67.3989 154.538" calcMode="spline" keySplines="0 0 1 1;0 0 0.364289 1;0.177714 0 0.603683 0.104781;0.333333 0.333333 0.666667 0.666667;0.255486 0.752825 0.266485 0;0.48901 0.99092 0.22537 0.525608;0.889688 0.544855 0.0364758 0.430406;0.963524 0.569594 0.110148 0.489306;0.889852 0.510694 0 0.313121;1 0.686879 0.139075 0.577416;0 0 1 1"/>
              </path>
             </g>
            </g>
           </g>
          </g>
         </g>
        </g>
        <g transform="translate(96.5553 121.247)">
         <g transform="translate(0 0)">
          <g transform="rotate(0)">
           <g transform="scale(1 1)">
            <g transform="skewX(0) skewY(0)">
             <g transform="translate(-96.5553 -121.247)" opacity="1">
              <path d="M96.5553 137.68C96.5553 104.813 96.5553 104.813 96.5553 104.813" fill="rgba(0, 0, 0, 1)" id="path2" fill-rule="evenodd" stroke-width="4.70958" stroke-linejoin="round" stroke="rgba(255, 255, 255, 1)" stroke-linecap="round"/>
             </g>
            </g>
           </g>
          </g>
         </g>
        </g>
        <g transform="translate(96.5553 81.8477)">
         <g transform="translate(0 0)">
          <g transform="rotate(0)">
           <g transform="scale(1 1)">
            <g transform="skewX(0) skewY(0)">
             <g transform="translate(-96.5553 -81.8477)" opacity="1">
              <ellipse fill="none" ry="22.9657" rx="22.9657" id="path3" cx="96.5553" stroke-width="4.70958" cy="81.8477" stroke-linejoin="round" stroke="rgba(255, 255, 255, 1)" stroke-linecap="round"/>
             </g>
            </g>
           </g>
          </g>
         </g>
        </g>
        <g transform="translate(85.0421 76.312)">
         <g transform="translate(0 0)">
          <g transform="rotate(0)">
           <g transform="scale(1 1)">
            <g transform="skewX(0) skewY(0)">
             <g transform="translate(-85.0421 -76.312)" opacity="1">
              <path d="M88.3999 76.312Q88.3999 76.477 88.3837 76.6412Q88.3675 76.8053 88.3353 76.9671Q88.3032 77.1289 88.2553 77.2867Q88.2074 77.4446 88.1443 77.597Q88.0811 77.7494 88.0034 77.8949Q87.9256 78.0403 87.834 78.1775Q87.7423 78.3146 87.6377 78.4422Q87.533 78.5697 87.4164 78.6863Q87.2998 78.803 87.1722 78.9076Q87.0447 79.0122 86.9076 79.1039Q86.7704 79.1955 86.6249 79.2733Q86.4795 79.3511 86.3271 79.4142Q86.1747 79.4773 86.0168 79.5252Q85.859 79.5731 85.6972 79.6052Q85.5354 79.6374 85.3712 79.6536Q85.2071 79.6698 85.0421 79.6698Q84.8772 79.6698 84.713 79.6536Q84.5489 79.6374 84.3871 79.6052Q84.2253 79.5731 84.0674 79.5252Q83.9096 79.4773 83.7572 79.4142Q83.6048 79.351 83.4593 79.2733Q83.3138 79.1955 83.1767 79.1039Q83.0395 79.0122 82.912 78.9076Q82.7845 78.8029 82.6679 78.6863Q82.5512 78.5697 82.4466 78.4421Q82.3419 78.3146 82.2503 78.1775Q82.1587 78.0403 82.0809 77.8949Q82.0031 77.7494 81.94 77.597Q81.8769 77.4446 81.829 77.2867Q81.7811 77.1289 81.7489 76.9671Q81.7167 76.8053 81.7006 76.6412Q81.6844 76.477 81.6844 76.312Q81.6844 76.1471 81.7006 75.9829Q81.7167 75.8188 81.7489 75.657Q81.7811 75.4952 81.829 75.3373Q81.8769 75.1795 81.94 75.0271Q82.0031 74.8747 82.0809 74.7292Q82.1587 74.5837 82.2503 74.4466Q82.3419 74.3094 82.4466 74.1819Q82.5512 74.0544 82.6679 73.9378Q82.7845 73.8211 82.912 73.7165Q83.0395 73.6118 83.1767 73.5202Q83.3138 73.4285 83.4593 73.3508Q83.6048 73.273 83.7572 73.2099Q83.9096 73.1468 84.0674 73.0989Q84.2253 73.051 84.3871 73.0188Q84.5489 72.9866 84.713 72.9705Q84.8772 72.9543 85.0421 72.9543Q85.2071 72.9543 85.3712 72.9705Q85.5354 72.9866 85.6972 73.0188Q85.859 73.051 86.0168 73.0989Q86.1747 73.1468 86.3271 73.2099Q86.4795 73.273 86.6249 73.3508Q86.7704 73.4285 86.9076 73.5202Q87.0447 73.6118 87.1722 73.7165Q87.2998 73.8211 87.4164 73.9378Q87.533 74.0544 87.6377 74.1819Q87.7423 74.3094 87.834 74.4466Q87.9256 74.5837 88.0034 74.7292Q88.0811 74.8747 88.1443 75.0271Q88.2074 75.1795 88.2553 75.3373Q88.3032 75.4952 88.3353 75.657Q88.3675 75.8188 88.3837 75.9829Q88.3999 76.1471 88.3999 76.312Z" fill="rgba(255, 255, 255, 1)" id="path4" fill-rule="evenodd" stroke-width="4.70958" stroke-linejoin="round" stroke="none" stroke-linecap="round"/>
             </g>
            </g>
           </g>
          </g>
         </g>
        </g>
        <g transform="translate(85.0421 76.312)">
         <g transform="translate(23.0264 0)">
          <g transform="rotate(-180)">
           <g transform="scale(1 -1)">
            <g transform="skewX(0) skewY(0)">
             <g transform="translate(-85.0421 -76.312)" opacity="1">
              <path d="M88.3999 76.312Q88.3999 76.477 88.3837 76.6412Q88.3675 76.8053 88.3353 76.9671Q88.3032 77.1289 88.2553 77.2867Q88.2074 77.4446 88.1443 77.597Q88.0811 77.7494 88.0034 77.8949Q87.9256 78.0403 87.834 78.1775Q87.7423 78.3146 87.6377 78.4422Q87.533 78.5697 87.4164 78.6863Q87.2998 78.803 87.1722 78.9076Q87.0447 79.0122 86.9076 79.1039Q86.7704 79.1955 86.6249 79.2733Q86.4795 79.3511 86.3271 79.4142Q86.1747 79.4773 86.0168 79.5252Q85.859 79.5731 85.6972 79.6052Q85.5354 79.6374 85.3712 79.6536Q85.2071 79.6698 85.0421 79.6698Q84.8772 79.6698 84.713 79.6536Q84.5489 79.6374 84.3871 79.6052Q84.2253 79.5731 84.0674 79.5252Q83.9096 79.4773 83.7572 79.4142Q83.6048 79.351 83.4593 79.2733Q83.3138 79.1955 83.1767 79.1039Q83.0395 79.0122 82.912 78.9076Q82.7845 78.8029 82.6679 78.6863Q82.5512 78.5697 82.4466 78.4421Q82.3419 78.3146 82.2503 78.1775Q82.1587 78.0403 82.0809 77.8949Q82.0031 77.7494 81.94 77.597Q81.8769 77.4446 81.829 77.2867Q81.7811 77.1289 81.7489 76.9671Q81.7167 76.8053 81.7006 76.6412Q81.6844 76.477 81.6844 76.312Q81.6844 76.1471 81.7006 75.9829Q81.7167 75.8188 81.7489 75.657Q81.7811 75.4952 81.829 75.3373Q81.8769 75.1795 81.94 75.0271Q82.0031 74.8747 82.0809 74.7292Q82.1587 74.5837 82.2503 74.4466Q82.3419 74.3094 82.4466 74.1819Q82.5512 74.0544 82.6679 73.9378Q82.7845 73.8211 82.912 73.7165Q83.0395 73.6118 83.1767 73.5202Q83.3138 73.4285 83.4593 73.3508Q83.6048 73.273 83.7572 73.2099Q83.9096 73.1468 84.0674 73.0989Q84.2253 73.051 84.3871 73.0188Q84.5489 72.9866 84.713 72.9705Q84.8772 72.9543 85.0421 72.9543Q85.2071 72.9543 85.3712 72.9705Q85.5354 72.9866 85.6972 73.0188Q85.859 73.051 86.0168 73.0989Q86.1747 73.1468 86.3271 73.2099Q86.4795 73.273 86.6249 73.3508Q86.7704 73.4285 86.9076 73.5202Q87.0447 73.6118 87.1722 73.7165Q87.2998 73.8211 87.4164 73.9378Q87.533 74.0544 87.6377 74.1819Q87.7423 74.3094 87.834 74.4466Q87.9256 74.5837 88.0034 74.7292Q88.0811 74.8747 88.1443 75.0271Q88.2074 75.1795 88.2553 75.3373Q88.3032 75.4952 88.3353 75.657Q88.3675 75.8188 88.3837 75.9829Q88.3999 76.1471 88.3999 76.312Z" fill="rgba(255, 255, 255, 1)" id="path5" fill-rule="evenodd" stroke-width="4.70958" stroke-linejoin="round" stroke="none" stroke-linecap="round"/>
             </g>
            </g>
           </g>
          </g>
         </g>
        </g>
       </g>
      </g>
     </g>
    </g>
   </g>
  </g>
 </g>
 <defs/>
</svg>
